<mxfile host="app.diagrams.net" modified="2022-01-14T07:37:12.481Z" agent="5.0 (Windows NT 10.0; Win64; x64) AppleWebKit/537.36 (KHTML, like Gecko) Chrome/97.0.4692.71 Safari/537.36 Edg/97.0.1072.55" etag="eBs3VXEwWuvGyeHLkWdc" version="16.0.3" type="github" pages="2">
  <diagram id="PJU4n7mO_tyWqtR5L4p4" name="Overall">
    <mxGraphModel dx="1502" dy="835" grid="1" gridSize="10" guides="1" tooltips="1" connect="1" arrows="1" fold="1" page="1" pageScale="1" pageWidth="850" pageHeight="1100" math="0" shadow="0">
      <root>
        <mxCell id="0" />
        <mxCell id="1" parent="0" />
        <mxCell id="hZ53Xy33LP4GwxtxV8D0-13" style="edgeStyle=orthogonalEdgeStyle;rounded=0;orthogonalLoop=1;jettySize=auto;html=1;entryX=0.5;entryY=0;entryDx=0;entryDy=0;fontFamily=Verdana;" parent="1" source="hZ53Xy33LP4GwxtxV8D0-3" target="hZ53Xy33LP4GwxtxV8D0-12" edge="1">
          <mxGeometry relative="1" as="geometry" />
        </mxCell>
        <mxCell id="hZ53Xy33LP4GwxtxV8D0-22" value="Generate" style="edgeLabel;html=1;align=center;verticalAlign=middle;resizable=0;points=[];fontFamily=Verdana;" parent="hZ53Xy33LP4GwxtxV8D0-13" vertex="1" connectable="0">
          <mxGeometry x="-0.1824" relative="1" as="geometry">
            <mxPoint as="offset" />
          </mxGeometry>
        </mxCell>
        <mxCell id="hZ53Xy33LP4GwxtxV8D0-3" value="CI Pipeline" style="sketch=0;outlineConnect=0;fontColor=#232F3E;gradientColor=none;fillColor=#4285F4;strokeColor=none;dashed=0;verticalLabelPosition=middle;verticalAlign=middle;align=left;html=1;fontSize=12;fontStyle=0;aspect=fixed;pointerEvents=1;shape=mxgraph.aws4.iot_analytics_pipeline;labelPosition=right;" parent="1" vertex="1">
          <mxGeometry x="359" y="210" width="78" height="42" as="geometry" />
        </mxCell>
        <mxCell id="hZ53Xy33LP4GwxtxV8D0-7" style="edgeStyle=orthogonalEdgeStyle;rounded=0;orthogonalLoop=1;jettySize=auto;html=1;exitX=1;exitY=0.5;exitDx=0;exitDy=0;" parent="1" source="hZ53Xy33LP4GwxtxV8D0-4" target="hZ53Xy33LP4GwxtxV8D0-3" edge="1">
          <mxGeometry relative="1" as="geometry" />
        </mxCell>
        <mxCell id="hZ53Xy33LP4GwxtxV8D0-11" value="master check-in" style="edgeLabel;html=1;align=center;verticalAlign=middle;resizable=0;points=[];fontFamily=Verdana;" parent="hZ53Xy33LP4GwxtxV8D0-7" vertex="1" connectable="0">
          <mxGeometry x="0.119" y="-1" relative="1" as="geometry">
            <mxPoint as="offset" />
          </mxGeometry>
        </mxCell>
        <mxCell id="hZ53Xy33LP4GwxtxV8D0-17" style="edgeStyle=orthogonalEdgeStyle;rounded=0;orthogonalLoop=1;jettySize=auto;html=1;exitX=0;exitY=0.5;exitDx=0;exitDy=0;fontFamily=Verdana;" parent="1" source="hZ53Xy33LP4GwxtxV8D0-4" target="hZ53Xy33LP4GwxtxV8D0-8" edge="1">
          <mxGeometry relative="1" as="geometry" />
        </mxCell>
        <mxCell id="hZ53Xy33LP4GwxtxV8D0-4" value="XPay Repo&lt;br&gt;Component code" style="shape=image;html=1;verticalAlign=top;verticalLabelPosition=bottom;labelBackgroundColor=#ffffff;imageAspect=0;aspect=fixed;image=https://cdn0.iconfinder.com/data/icons/octicons/1024/repo-forked-128.png" parent="1" vertex="1">
          <mxGeometry x="279" y="80" width="60" height="60" as="geometry" />
        </mxCell>
        <mxCell id="hZ53Xy33LP4GwxtxV8D0-8" value="Gated Pipeline" style="sketch=0;outlineConnect=0;fontColor=#232F3E;gradientColor=none;fillColor=#4285F4;strokeColor=none;dashed=0;verticalLabelPosition=bottom;verticalAlign=top;align=center;html=1;fontSize=12;fontStyle=0;aspect=fixed;pointerEvents=1;shape=mxgraph.aws4.iot_analytics_pipeline;" parent="1" vertex="1">
          <mxGeometry x="190" y="210" width="78" height="42" as="geometry" />
        </mxCell>
        <mxCell id="hZ53Xy33LP4GwxtxV8D0-19" style="edgeStyle=orthogonalEdgeStyle;rounded=0;orthogonalLoop=1;jettySize=auto;html=1;exitX=0.5;exitY=1;exitDx=0;exitDy=0;fontFamily=Verdana;" parent="1" source="hZ53Xy33LP4GwxtxV8D0-12" target="hZ53Xy33LP4GwxtxV8D0-15" edge="1">
          <mxGeometry relative="1" as="geometry" />
        </mxCell>
        <mxCell id="hZ53Xy33LP4GwxtxV8D0-21" value="Consume" style="edgeLabel;html=1;align=center;verticalAlign=middle;resizable=0;points=[];fontFamily=Verdana;" parent="hZ53Xy33LP4GwxtxV8D0-19" vertex="1" connectable="0">
          <mxGeometry x="0.1299" y="1" relative="1" as="geometry">
            <mxPoint as="offset" />
          </mxGeometry>
        </mxCell>
        <mxCell id="hZ53Xy33LP4GwxtxV8D0-12" value="Component.zip" style="editableCssRules=.*;shape=image;verticalLabelPosition=bottom;labelBackgroundColor=#ffffff;verticalAlign=top;aspect=fixed;imageAspect=0;image=data:image/svg+xml,PHN2ZyB4bWxucz0iaHR0cDovL3d3dy53My5vcmcvMjAwMC9zdmciIHhtbG5zOnY9Imh0dHBzOi8vdmVjdGEuaW8vbmFubyIgd2lkdGg9IjIxLjk5OTAwMDU0OTMxNjQwNiIgaGVpZ2h0PSIyMC4zOTM5OTkwOTk3MzE0NDUiIHZpZXdCb3g9IjAgMCAyMS45OTkwMDA1NDkzMTY0MDYgMjAuMzkzOTk5MDk5NzMxNDQ1Ij4mI3hhOwk8c3R5bGUgdHlwZT0idGV4dC9jc3MiPiYjeGE7CS5zdDB7ZmlsbDojNDI4NWY0O2ZpbGwtcnVsZTpldmVub2RkfSYjeGE7CTwvc3R5bGU+JiN4YTsJPHBhdGggY2xhc3M9InN0MCIgZD0iTTUgMHYyLjQ1OEwxLjk5OSA0LjE5N3YxMi4wMUw1IDE3LjkzOHYyLjQ1NmwtNS0yLjg4N1YyLjg4NnptMTIgMGw0Ljk5OSAyLjg4NnYxNC42MjFMMTcgMjAuMzk0di0yLjQ1NmwzLTEuNzMxVjQuMTk3bC0zLTEuNzM5em0tNi4wMTYgNi42NzNsMi45NDctMS42NDYtMi45NDctMS42NDYtMi45NDcgMS42NDZ6bTMuMjY4LTEuMDk2bC0yLjg3MSAxLjY3OHYzLjI4N2wyLjg3MS0xLjY3NnpNNy43NzMgOC44NjZsMi44NzEgMS42NzRWNy4yNTZMNy43NzMgNS41Nzd6bS0uMjEyIDMuODc4bDIuODItMS42NDYtMi44Mi0xLjY0Ni0yLjgyIDEuNjQ2em0zLjEzMi0xLjA5OGwtMi44NzEgMS42Nzh2My4yODdsMi44NzEtMS42NzZ6bS02LjI2NCAzLjI4OUw3LjMgMTYuNjA5di0zLjI4NWwtMi44NzEtMS42Nzl6bTEwLjAyOS0yLjE5MWwyLjgyLTEuNjQ2LTIuODItMS42NDYtMi44MiAxLjY0NnptMy4xMzItMS4wOThsLTIuODcxIDEuNjc4djMuMjg3bDIuODcxLTEuNjc2em0tNi4yNjQgMy4yODlsMi44NzEgMS42NzR2LTMuMjg1bC0yLjg3MS0xLjY3OXoiLz4mI3hhOzwvc3ZnPg==;fontFamily=Verdana;fillColor=#0000FF;" parent="1" vertex="1">
          <mxGeometry x="359.22" y="310" width="77.78" height="70" as="geometry" />
        </mxCell>
        <mxCell id="hZ53Xy33LP4GwxtxV8D0-18" style="edgeStyle=orthogonalEdgeStyle;rounded=0;orthogonalLoop=1;jettySize=auto;html=1;exitX=1;exitY=0.5;exitDx=0;exitDy=0;fontFamily=Verdana;" parent="1" source="hZ53Xy33LP4GwxtxV8D0-14" target="hZ53Xy33LP4GwxtxV8D0-15" edge="1">
          <mxGeometry relative="1" as="geometry" />
        </mxCell>
        <mxCell id="hZ53Xy33LP4GwxtxV8D0-23" value="Manual&lt;br&gt;On demand" style="edgeLabel;html=1;align=center;verticalAlign=middle;resizable=0;points=[];fontFamily=Verdana;" parent="hZ53Xy33LP4GwxtxV8D0-18" vertex="1" connectable="0">
          <mxGeometry x="-0.2172" relative="1" as="geometry">
            <mxPoint as="offset" />
          </mxGeometry>
        </mxCell>
        <mxCell id="hZ53Xy33LP4GwxtxV8D0-14" value="Edge Repo" style="shape=image;html=1;verticalAlign=top;verticalLabelPosition=bottom;labelBackgroundColor=#ffffff;imageAspect=0;aspect=fixed;image=https://cdn0.iconfinder.com/data/icons/octicons/1024/repo-forked-128.png" parent="1" vertex="1">
          <mxGeometry x="190" y="510" width="60" height="60" as="geometry" />
        </mxCell>
        <mxCell id="hZ53Xy33LP4GwxtxV8D0-15" value="CRX Build Pipeline" style="sketch=0;outlineConnect=0;fontColor=#232F3E;gradientColor=none;fillColor=#4285F4;strokeColor=none;dashed=0;verticalLabelPosition=bottom;verticalAlign=top;align=center;html=1;fontSize=12;fontStyle=0;aspect=fixed;pointerEvents=1;shape=mxgraph.aws4.iot_analytics_pipeline;" parent="1" vertex="1">
          <mxGeometry x="359" y="519" width="78" height="42" as="geometry" />
        </mxCell>
        <mxCell id="hZ53Xy33LP4GwxtxV8D0-20" value="&lt;h1 style=&quot;font-size: 12px;&quot;&gt;Artifact&lt;/h1&gt;&lt;p style=&quot;font-size: 12px;&quot;&gt;We can leverage Azure artifact or use a web server to serve the zip file.&lt;/p&gt;" style="text;html=1;strokeColor=none;fillColor=none;spacing=5;spacingTop=-20;whiteSpace=wrap;overflow=hidden;rounded=0;fontFamily=Verdana;fontSize=12;labelBorderColor=default;spacingBottom=0;" parent="1" vertex="1">
          <mxGeometry x="449" y="310" width="130" height="100" as="geometry" />
        </mxCell>
      </root>
    </mxGraphModel>
  </diagram>
  <diagram id="-P9GrZFYxZjrkA4sCNLT" name="Code">
    <mxGraphModel dx="1502" dy="835" grid="1" gridSize="10" guides="1" tooltips="1" connect="1" arrows="1" fold="1" page="1" pageScale="1" pageWidth="850" pageHeight="1100" math="0" shadow="0">
      <root>
        <mxCell id="sZe8FNBouu0Gg12doHUx-0" />
        <mxCell id="sZe8FNBouu0Gg12doHUx-1" parent="sZe8FNBouu0Gg12doHUx-0" />
        <mxCell id="jfykmIwVGxi9yxPH_lwV-4" style="edgeStyle=orthogonalEdgeStyle;rounded=0;orthogonalLoop=1;jettySize=auto;html=1;exitX=0;exitY=0.5;exitDx=0;exitDy=0;entryX=0.5;entryY=0;entryDx=0;entryDy=0;entryPerimeter=0;fontFamily=Verdana;fontSize=12;" edge="1" parent="sZe8FNBouu0Gg12doHUx-1" source="jfykmIwVGxi9yxPH_lwV-0" target="jfykmIwVGxi9yxPH_lwV-2">
          <mxGeometry relative="1" as="geometry" />
        </mxCell>
        <mxCell id="jfykmIwVGxi9yxPH_lwV-0" value="XPay Repo&lt;br&gt;Component code" style="shape=image;html=1;verticalAlign=top;verticalLabelPosition=bottom;labelBackgroundColor=#ffffff;imageAspect=0;aspect=fixed;image=https://cdn0.iconfinder.com/data/icons/octicons/1024/repo-forked-128.png" vertex="1" parent="sZe8FNBouu0Gg12doHUx-1">
          <mxGeometry x="220" y="60" width="60" height="60" as="geometry" />
        </mxCell>
        <mxCell id="jfykmIwVGxi9yxPH_lwV-2" value="Source code&lt;br&gt;src/wallet" style="verticalLabelPosition=bottom;html=1;verticalAlign=top;align=center;strokeColor=none;fillColor=#4285F4;shape=mxgraph.azure.code_file;pointerEvents=1;labelBorderColor=default;fontFamily=Verdana;fontSize=12;" vertex="1" parent="sZe8FNBouu0Gg12doHUx-1">
          <mxGeometry x="70" y="190" width="47.5" height="50" as="geometry" />
        </mxCell>
      </root>
    </mxGraphModel>
  </diagram>
</mxfile>
